<svg enable-background="new 0 0 512 512" viewBox="0 0 512 512" xmlns="http://www.w3.org/2000/svg"><path d="m508.333 32.666c0-16.316-13.349-29.666-29.665-29.666h-449.636c-14.684 0-26.699 12.015-26.699 26.699v452.602c0 14.684 12.015 26.699 26.699 26.699h449.635c16.316 0 29.666-13.35 29.666-29.666z" fill="#00b89c"/><path d="m478.668 488.915h-449.636c-14.684 0-26.699-12.015-26.699-26.699v20.085c0 14.684 12.015 26.699 26.699 26.699h449.635c16.316 0 29.666-13.35 29.666-29.666v-20.085c0 16.316-13.349 29.666-29.665 29.666z" fill="#009e83"/><path d="m423.55 117.761-52.135-30.434c-6.421-3.749-14.666-1.582-18.414 4.84l-127.822 218.962-84.155-49.126c-5.206-3.039-11.89-1.282-14.929 3.924l-33.004 56.537c-3.039 5.206-1.282 11.89 3.924 14.929l150.112 87.629c5.206 3.039 11.89 1.282 14.929-3.924l1.217-2.085c.024-.041.053-.077.077-.118l165.04-282.72c3.748-6.421 1.581-14.665-4.84-18.414z" fill="#fff"/></svg>